<?xml version="1.0" encoding="UTF-8" standalone="no"?>
<?xml-stylesheet type="text/css" href="../css/style.css" ?>

<svg
   xmlns:dc="http://purl.org/dc/elements/1.1/"
   xmlns:cc="http://creativecommons.org/ns#"
   xmlns:rdf="http://www.w3.org/1999/02/22-rdf-syntax-ns#"
   xmlns:svg="http://www.w3.org/2000/svg"
   xmlns="http://www.w3.org/2000/svg"
   version="1.1"
   id="svg3400"
   viewBox="0 0 744.09448819 1052.3622047"
   height="297mm"
   width="210mm">
  <defs
     id="defs3402" />
  <metadata
     id="metadata3405">
    <rdf:RDF>
      <cc:Work
         rdf:about="">
        <dc:format>image/svg+xml</dc:format>
        <dc:type
           rdf:resource="http://purl.org/dc/dcmitype/StillImage" />
        <dc:title></dc:title>
      </cc:Work>
    </rdf:RDF>
  </metadata>
  <g
     id="layer1">
    <rect class="objeto-2"
       y="172.3622"
       x="94.285713"
       height="545.71429"
       width="534.28571"
       id="rect3408"
       style="fill:#ffb380;fill-rule:evenodd;stroke:#000000;stroke-width:1px;stroke-linecap:butt;stroke-linejoin:miter;stroke-opacity:1" />
    <rect class="objeto-1"
       y="412.36221"
       x="348.57144"
       height="407.14285"
       width="348.57144"
       id="rect3416"
       style="fill:#808080" />
    <rect class="objeto-1"
       y="339.50507"
       x="58.57143"
       height="204.28572"
       width="498.57144"
       id="rect3418"
       style="fill:#666666" />
    <ellipse class="objeto-1"
       ry="62.142857"
       rx="133.57143"
       cy="215.93364"
       cx="397.85715"
       id="path3420"
       style="fill:#666666" />
    <path class="objeto-1"
       id="path3422"
       d="m 224.28571,125.21935 -15.71428,77.14285 c 0,0 -11.42857,72.85715 -1.42857,80 10,7.14286 18.57143,74.28572 20,82.85715 1.42857,8.57143 98.57143,-5.71429 28.57143,85.71428 -70,91.42857 -61.42858,205.71429 -61.42858,205.71429 0,0 22.85715,70 28.57143,77.14286 5.71429,7.14285 -42.85714,60 60,62.85714 102.85715,2.85714 144.28572,21.42857 192.85715,-8.57143 48.57142,-30 84.28571,-22.85714 61.42857,-85.71429 -22.85715,-62.85714 -104.28572,-62.85714 -114.28572,-61.42857 -10,1.42857 2.85715,-4.28571 -14.28571,1.42857 -17.14286,5.71429 -10,77.14286 -41.42857,82.85715 -31.42857,5.71428 -50,28.57143 -60,8.57143 -10,-20 -15.71429,-17.14286 -11.42857,-60 4.28571,-42.85715 -1.42858,-67.14286 17.14285,-98.57143 18.57143,-31.42857 27.14286,-48.57143 40,-78.57143 12.85715,-30 27.14286,-54.28572 14.28572,-77.14286 -12.85715,-22.85714 -17.14286,-45.71428 -38.57143,-60 -21.42857,-14.28571 -44.28572,-4.28571 -44.28572,-40 0,-35.71428 -4.28571,-102.85714 -5.71428,-108.57143 z"
       style="fill:#ffaaaa;fill-rule:evenodd;stroke:#000000;stroke-width:1px;stroke-linecap:butt;stroke-linejoin:miter;stroke-opacity:1" />
  </g>
</svg>
